<?xml version="1.0" encoding="iso-8859-1"?>
<!-- Uploaded to: SVG Repo, www.svgrepo.com, Generator: SVG Repo Mixer Tools -->
<svg fill="#FF5722" height="800px" width="800px" version="1.1" id="Layer_1" xmlns="http://www.w3.org/2000/svg" xmlns:xlink="http://www.w3.org/1999/xlink"
	 viewBox="0 0 512.001 512.001" xml:space="preserve">
<g>
	<g>
		<path d="M256.001,204.8c-22.289,0-40.421,18.132-40.421,40.421s18.132,40.421,40.421,40.421s40.421-18.132,40.421-40.421
			S278.289,204.8,256.001,204.8z M256.001,269.474c-13.373,0-24.253-10.879-24.253-24.253c0-13.373,10.879-24.253,24.253-24.253
			c13.372,0,24.253,10.879,24.253,24.253C280.253,258.594,269.373,269.474,256.001,269.474z"/>
	</g>
</g>
<g>
	<g>
		<path d="M468.885,420.532V245.221c0-53.066-19.641-103.902-55.306-143.14c-33.625-36.997-78.807-60.83-127.936-67.682V19.111
			C285.643,8.574,277.069,0,266.532,0H245.47c-10.538,0-19.111,8.574-19.111,19.111v15.288
			c-49.233,6.867-94.508,30.794-128.142,67.908c-35.532,39.206-55.1,89.96-55.1,142.914v218.427
			c-12.109,1.345-21.558,11.637-21.558,24.1c0,13.373,10.879,24.253,24.253,24.253h53.895c13.373,0,24.253-10.879,24.253-24.253
			c0-12.462-9.449-22.754-21.558-24.1v-71.18c38.772,40.429,93.295,65.637,153.6,65.637c58.459,0,113.528-23.673,153.6-65.484
			v27.912c-12.109,1.345-21.558,11.637-21.558,24.1c0,8.769,4.678,16.465,11.669,20.726l10.13,40.519
			c0.9,3.599,4.134,6.124,7.843,6.124h43.116c3.709,0,6.943-2.524,7.843-6.124l10.13-40.519
			c6.991-4.262,11.669-11.958,11.669-20.727C490.443,432.17,480.994,421.877,468.885,420.532z M285.643,50.719
			c95.902,14.391,167.074,96.379,167.074,194.502v175.158h-26.947V245.221c0-41.392-15.066-81.265-42.421-112.27
			c-25.534-28.942-60.011-48.262-97.706-54.911V50.719z M242.527,19.111c0-1.622,1.32-2.943,2.943-2.943h21.062
			c1.623,0,2.943,1.32,2.943,2.943v128.852c0,1.622-1.32,2.943-2.943,2.943h-21.062c-1.622,0-2.943-1.32-2.943-2.943V19.111z
			 M245.47,167.074h21.062c10.538,0,19.111-8.574,19.111-19.111v-9.21c47.383,13.11,80.842,56.424,80.842,106.468
			c0,60.922-49.563,110.484-110.484,110.484s-110.484-49.563-110.484-110.484c0-50.044,33.459-93.359,80.842-106.468v9.21
			C226.358,158.5,234.932,167.074,245.47,167.074z M59.285,326.571c7.004,16.876,16.117,32.66,27.011,47.026
			c-0.038,0.319-0.064,0.641-0.064,0.971v88.926H59.285V326.571z M107.79,487.747c0,4.458-3.626,8.084-8.084,8.084H45.811
			c-4.458,0-8.084-3.626-8.084-8.084c0-4.458,3.626-8.084,8.084-8.084h53.895C104.164,479.663,107.79,483.289,107.79,487.747z
			 M408.525,369.461c-37.565,46.06-93.157,72.475-152.524,72.475c-108.47,0-196.716-88.246-196.716-196.716
			c0-98.017,71.211-180.097,167.074-194.497V78.04c-32.596,5.749-62.785,20.975-86.866,43.702
			c-3.336,3.148-3.409,8.438-0.165,11.681c3.111,3.111,8.133,3.188,11.328,0.164c20.583-19.484,46.589-33.404,75.704-39.1v27.576
			c-58.185,13.916-99.257,67.15-96.916,128.112c2.587,67.374,58.297,121.257,125.718,121.695
			c70.221,0.458,127.492-56.533,127.492-126.649c0-58.875-40.408-109.621-97.011-123.158V94.488
			C356.928,108.433,409.6,171.654,409.6,245.221c0,84.696-68.904,153.6-153.6,153.6s-153.6-68.904-153.6-153.6
			c0-32.708,10.417-63.365,28.247-88.56c2.279-3.221,1.875-7.622-0.914-10.411l-0.006-0.006c-3.558-3.558-9.484-3.082-12.389,1.027
			c-20.162,28.518-31.106,62.681-31.106,97.95c0,93.611,76.158,169.768,169.768,169.768c67.783,0,126.406-39.937,153.6-97.512
			v52.861L408.525,369.461z M454.489,495.832h-30.493l-6.737-26.947h43.966L454.489,495.832z M466.19,452.716h-53.895
			c-4.458,0-8.084-3.626-8.084-8.084c0-4.458,3.626-8.084,8.084-8.084h53.895c4.458,0,8.084,3.626,8.084,8.084
			C474.274,449.09,470.648,452.716,466.19,452.716z"/>
	</g>
</g>
</svg>
